# xmcd CD database file
#
# Track frame offsets:
#	150
#	32054
#	79852
#	99151
#	132925
#	156046
#	178382
#	212050
#
# Disc length: 3305 seconds
#
# Revision: 1
# Processed by: cddbd v1.5.2PL0 Copyright (c) Steve Scherf et al.
# Submitted via: CDex 1.70beta2
#
DISCID=640ce708
DTITLE=IRON MAIDEN - EN VIVO! [Disc 2]
DYEAR=2011
DGENRE=Heavy Metal
TTITLE0=Blood Brothers (Live)
TTITLE1=When The Wild Wind Blows (Live)
TTITLE2=The Evil That Men Do (Live)
TTITLE3=Fear Of The Dark (Live)
TTITLE4=Iron Maiden (Live)
TTITLE5=The Number Of The Beast (Live)
TTITLE6=Hallowed Be Thy Name (Live)
TTITLE7=Running Free (Live)
EXTD=YEAR: 2011
EXTT0=
EXTT1=
EXTT2=
EXTT3=
EXTT4=
EXTT5=
EXTT6=
EXTT7=
PLAYORDER=
